<?xml version="1.0" encoding="UTF-8"?>
<svg version="1.1" viewBox="0 0 684 249" xmlns="http://www.w3.org/2000/svg">
<title>logo-dark-mode</title>
<g fill="none" fill-rule="evenodd">
<g fill-rule="nonzero">
<path id="Path" d="m184.5 139.62-16.8-29.78-30.12-8.84 23.2-3.4-21.7-38.46-21.81-12 21 3.5 45.83 7-68.46-55.3c-3.38-3.28-8.4-1.8-10.16 3l-17.6 67.44 24.47 4.12-27.1 6-15.14 58 45 6.38-50.76 8.13-63.46 31.83s41.71-1.89 55.9-3.87c53.74-7.53 93.22-8.29 147-16.61 9.41-1.46 45.88-25.28 45.88-25.28l-65.17-1.86z" fill="#F15A24"/>
<path id="Shape" d="m23.83 233.08c0 5.06-1.3333 8.8833-4 11.47s-6.5467 3.8833-11.64 3.89h-7.19v-30.13h8.11c4.7867 0 8.43 1.2567 10.93 3.77s3.7633 6.18 3.79 11zm-2.28 0.09c0-4.32-1.09-7.5667-3.27-9.74s-5.3867-3.2633-9.62-3.27h-5.52v26.42h5c8.94 0 13.41-4.47 13.41-13.41z" fill="#FFF"/>
<path id="Shape" d="m51.49 237.8h-12.2l-4.18 10.64h-2.32l12.07-30.26h1.33l11.81 30.26h-2.36l-4.15-10.64zm-11.44-1.89h10.74l-4.08-10.86c-0.35-0.85-0.76-2-1.24-3.55-0.33362 1.219-0.73763 2.4177-1.21 3.59l-4.21 10.82z" fill="#FFF"/>
<polygon id="Path" points="76.39 248.44 74.28 248.44 74.28 220.29 64.53 220.29 64.53 218.29 86.15 218.29 86.15 220.29 76.39 220.29" fill="#FFF"/>
<path id="Shape" d="m111.36 237.8h-12.19l-4.17 10.64h-2.32l12.07-30.26h1.33l11.83 30.26h-2.36l-4.19-10.64zm-11.43-1.89h10.73l-4.08-10.86c-0.35-0.85-0.76-2-1.23-3.55-0.33674 1.2193-0.74409 2.418-1.22 3.59l-4.2 10.82z" fill="#FFF"/>
<path id="Path" d="m162.24 240.67c0.10226 2.3282-0.92558 4.5626-2.76 6-2.1171 1.5641-4.7113 2.3452-7.34 2.21-2.8649 0.12466-5.7277-0.28917-8.44-1.22v-2.1c2.6411 1.0049 5.4558 1.4741 8.28 1.38 2.0897 0.11483 4.1562-0.48469 5.86-1.7 1.3999-1.049 2.2049-2.7112 2.16-4.46 0.038073-0.99304-0.21198-1.9759-0.72-2.83-0.59983-0.86512-1.4035-1.5692-2.34-2.05-1.5217-0.81184-3.1151-1.4814-4.76-2-3.06-1.06-5.1767-2.2033-6.35-3.43-1.2137-1.343-1.8465-3.1119-1.76-4.92-0.047555-2.1523 0.93285-4.1985 2.64-5.51 1.9452-1.481 4.3474-2.2345 6.79-2.13 2.7285-0.018335 5.4315 0.52635 7.94 1.6l-0.76 1.82c-2.2507-0.99667-4.6788-1.5306-7.14-1.57-1.8912-0.098554-3.7599 0.44794-5.3 1.55-1.3088 0.99241-2.0545 2.5584-2 4.2-0.15395 1.9358 0.86638 3.7755 2.59 4.67 1.5047 0.83156 3.0852 1.518 4.72 2.05 1.8411 0.58272 3.6093 1.3746 5.27 2.36 1.0587 0.63959 1.9445 1.5289 2.58 2.59 0.57306 1.0727 0.86222 2.2741 0.84 3.49z" fill="#FFF"/>
<polygon id="Path" points="182.71 248.44 180.6 248.44 180.6 220.29 170.85 220.29 170.85 218.29 192.46 218.29 192.46 220.29 182.71 220.29" fill="#FFF"/>
<polygon id="Path" points="219.63 248.44 203.23 248.44 203.23 218.31 219.63 218.31 219.63 220.25 205.32 220.25 205.32 231.64 218.83 231.64 218.83 233.58 205.32 233.58 205.32 246.5 219.63 246.5" fill="#FFF"/>
<path id="Path" d="m256.65 248.44h-1.73l-6.59-23.25c-0.54-1.91-0.95-3.47-1.23-4.7-0.22 1.2-0.53 2.57-0.93 4.12s-2.61 9.5-6.62 23.83h-1.77l-8.25-30.13h2.19l5.28 19.41 0.58 2.18 0.48 1.87c0.14 0.58 0.27 1.15 0.39 1.69s0.22 1.09 0.32 1.64c0.32-1.8733 1.0167-4.71 2.09-8.51l5.14-18.28h2.32l6 21c0.7 2.42 1.19 4.37 1.5 5.85 0.17-1 0.4-2 0.68-3.15s2.4-9 6.34-23.68h2.11l-8.3 30.11z" fill="#FFF"/>
<path id="Shape" d="m291 237.8h-12.2l-4.19 10.64h-2.32l12.08-30.26h1.33l11.83 30.26h-2.37l-4.16-10.64zm-11.44-1.89h10.74l-4.09-10.86c-0.34-0.85-0.75-2-1.23-3.55-0.33362 1.219-0.73763 2.4177-1.21 3.59l-4.21 10.82z" fill="#FFF"/>
<path id="Shape" d="m310.18 235.31v13.13h-2.1v-30.13h7.15c3.72 0 6.47 0.69 8.25 2.07 1.8447 1.523 2.8393 3.8438 2.67 6.23 0.060294 1.8337-0.49992 3.6342-1.59 5.11-1.2378 1.507-2.9396 2.5619-4.84 3l8.15 13.73h-2.5l-7.74-13.13-7.45-0.01zm0-1.81h5.72c2.1038 0.1298 4.1878-0.47069 5.9-1.7 1.4381-1.2497 2.211-3.0986 2.09-5 0-2.3-0.68333-3.9667-2.05-5-1.37-1-3.6-1.57-6.7-1.57h-5l0.04 13.27z" fill="#FFF"/>
<path id="Shape" d="m362.16 233.08c0 5.06-1.3333 8.8833-4 11.47s-6.5467 3.8833-11.64 3.89h-7.19v-30.13h8.11c4.7867 0 8.43 1.2567 10.93 3.77s3.7633 6.18 3.79 11zm-2.28 0.09c0-4.32-1.09-7.5667-3.27-9.74s-5.3833-3.2633-9.61-3.27h-5.52v26.42h5c8.94 0 13.407-4.47 13.4-13.41z" fill="#FFF"/>
<path id="Path" d="m391.93 240.67c0.10226 2.3282-0.92558 4.5626-2.76 6-2.1171 1.5641-4.7113 2.3452-7.34 2.21-2.8649 0.12466-5.7277-0.28917-8.44-1.22v-2.1c2.6413 1.0042 5.4558 1.4733 8.28 1.38 2.0897 0.11483 4.1562-0.48469 5.86-1.7 1.4024-1.048 2.2109-2.7098 2.17-4.46 0.038073-0.99304-0.21198-1.9759-0.72-2.83-0.60227-0.86294-1.4053-1.5665-2.34-2.05-1.5261-0.80992-3.1226-1.4793-4.77-2-3.06-1.06-5.1767-2.2033-6.35-3.43-1.2137-1.343-1.8465-3.1119-1.76-4.92-0.060452-2.1662 0.92129-4.2301 2.64-5.55 1.9452-1.481 4.3474-2.2345 6.79-2.13 2.7286-0.019485 5.4319 0.52524 7.94 1.6l-0.76 1.82c-2.2507-0.99667-4.6788-1.5306-7.14-1.57-1.8911-0.097757-3.7595 0.44866-5.3 1.55-1.3088 0.99241-2.0545 2.5584-2 4.2-0.14053 1.9328 0.87598 3.7657 2.59 4.67 1.5047 0.83156 3.0852 1.518 4.72 2.05 1.8434 0.58502 3.6146 1.3767 5.28 2.36 1.0535 0.64278 1.9354 1.5315 2.57 2.59 0.57974 1.0845 0.86911 2.3006 0.84 3.53z" fill="#FFF"/>
<polygon id="Path" points="426.32 248.44 424.21 248.44 424.21 233.62 406.68 233.62 406.68 248.44 404.58 248.44 404.58 218.31 406.68 218.31 406.68 231.68 424.21 231.68 424.21 218.31 426.32 218.31" fill="#FFF"/>
<polygon id="Path" points="441.13 248.44 441.13 218.31 443.22 218.31 443.22 248.44" fill="#FFF"/>
<path id="Shape" d="m476.1 227c0.14418 2.5874-0.97386 5.0844-3 6.7-2 1.5467-4.7933 2.3233-8.38 2.33h-4.64v12.45h-2.08v-30.17h7.35c7.16 0 10.743 2.8967 10.75 8.69zm-16 7.22h4.13c3.38 0 5.8233-0.56 7.33-1.68 1.5-1.12 2.26-2.94 2.26-5.45 0.15732-1.9668-0.63862-3.8897-2.14-5.17-1.42-1.12-3.63-1.68-6.61-1.68h-5l0.03 13.98z" fill="#FFF"/>
<path id="Path" d="m530.08 248.44h-1.73l-6.59-23.25c-0.55-1.91-1-3.47-1.23-4.7-0.22 1.2-0.53 2.57-0.94 4.12s-2.61 9.5-6.62 23.83h-1.76l-8.21-30.13h2.19l5.26 19.41c0.2 0.78 0.39 1.51 0.57 2.18s0.34 1.29 0.49 1.87 0.27 1.15 0.39 1.69 0.22 1.09 0.31 1.64c0.33333-1.8733 1.0333-4.71 2.1-8.51l5.13-18.28h2.32l6 21c0.66667 2.42 1.1633 4.37 1.49 5.85 0.18-0.99333 0.41-2.0433 0.69-3.15s2.39-9 6.33-23.68h2.12l-8.31 30.11z" fill="#FFF"/>
<polygon id="Path" points="550 248.44 550 218.31 552.1 218.31 552.1 248.44" fill="#FFF"/>
<polygon id="Path" points="585.16 248.44 564.31 248.44 564.31 246.87 581.88 220.29 565.11 220.29 565.11 218.29 584.69 218.29 584.69 219.85 567.08 246.44 585.16 246.44" fill="#FFF"/>
<path id="Shape" d="m611.86 237.8h-12.2l-4.19 10.64h-2.32l12.08-30.26h1.33l11.82 30.26h-2.38l-4.14-10.64zm-11.44-1.89h10.74l-4.09-10.86c-0.34-0.85-0.75-2-1.23-3.55-0.33362 1.219-0.73763 2.4177-1.21 3.59l-4.21 10.82z" fill="#FFF"/>
<path id="Shape" d="m631 235.31v13.13h-2.09v-30.13h7.15c3.72 0 6.47 0.69 8.25 2.07 1.8447 1.523 2.8393 3.8438 2.67 6.23 0.060294 1.8337-0.49992 3.6342-1.59 5.11-1.2393 1.5053-2.9405 2.5598-4.84 3l8.15 13.73h-2.5l-7.74-13.13-7.46-0.01zm0-1.81h5.73c2.1007 0.12995 4.1816-0.47067 5.89-1.7 1.4444-1.2458 2.2217-3.0964 2.1-5 0-2.3-0.69-4-2-5s-3.6-1.57-6.7-1.57h-5l-0.02 13.27z" fill="#FFF"/>
<path id="b" d="m683 233.08c0 5.06-1.3333 8.8833-4 11.47s-6.5467 3.8833-11.64 3.89h-7.19v-30.13h8.11c4.7867 0 8.43 1.2567 10.93 3.77s3.7633 6.18 3.79 11zm-2.28 0.09c0-4.32-1.09-7.5667-3.27-9.74s-5.3867-3.2633-9.62-3.27h-5.52v26.42h5c8.96 0 13.437-4.47 13.43-13.41h-0.020007z" fill="#FFF"/>
<path d="m390.18 92.59c0 21.627-6.1301 38.19-18.39 49.69s-29.97 17.25-53.13 17.25h-37.05v-131.37h41.08c21.333 0 37.923 5.6667 49.77 17s17.753 27.143 17.72 47.43zm-28.82 0.72c0-28.207-12.413-42.313-37.24-42.32h-14.77v85.54h11.91c26.733 0 40.1-14.407 40.1-43.22z" fill="#FFF"/>
<path id="a" d="m490.16 123.05c0 11.86-4.2502 21.193-12.75 28s-20.33 10.22-35.49 10.24c-14 0-26.353-2.6367-37.06-7.91v-25.83c7.2434 3.3654 14.74 6.1573 22.42 8.35 5.4656 1.5281 11.105 2.3448 16.78 2.43 6.0867 0 10.753-1.17 14-3.51s4.8933-5.8133 4.94-10.42c0.034179-2.4607-0.71915-4.8678-2.15-6.87-1.7383-2.2963-3.8757-4.2609-6.31-5.8-2.7667-1.86-8.4333-4.8267-17-8.9-8-3.7733-14-7.3967-18-10.87-3.925-3.3974-7.1633-7.5149-9.54-12.13-2.4821-5.0216-3.7105-10.57-3.58-16.17 0-11.62 3.9233-20.757 11.77-27.41s18.693-9.9867 32.54-10.001c6.5667-0.026834 13.11 0.78644 19.47 2.4207 6.6213 1.7795 13.097 4.0628 19.37 6.83l-8.95 21.66c-5.6248-2.4054-11.413-4.4104-17.32-6-4.4029-1.1202-8.9269-1.6945-13.47-1.71-5.2467 0-9.2733 1.23-12.08 3.69-2.7854 2.4011-4.3333 5.9346-4.21 9.61-0.052968 2.2578 0.53658 4.4843 1.7 6.42 1.4272 2.1198 3.2714 3.9265 5.42 5.31 2.4733 1.7 8.3367 4.77 17.59 9.21 12.233 5.8733 20.617 11.757 25.15 17.65 4.5333 5.8933 6.7867 13.13 6.7602 21.71z" fill="#FFF"/>
<path d="m650.13 159.53h-31.6l-17.72-69c-0.66667-2.4533-1.7867-7.53-3.36-15.23s-2.4833-12.867-2.73-15.5c-0.36 3.24-1.2533 8.4367-2.68 15.59s-2.5333 12.26-3.32 15.32l-17.63 68.83h-31.51l-33.38-131.38h27.3l16.74 71.71c2.92 13.24 5.0367 24.71 6.35 34.41 0.36-3.4067 1.18-8.69 2.46-15.85s2.49-12.717 3.63-16.67l19.06-73.6h26.26l19 73.6c0.84 3.2933 1.8867 8.3233 3.14 15.09s2.2067 12.577 2.86 17.43c0.6-4.6667 1.5567-10.49 2.87-17.47s2.5067-12.627 3.58-16.94l16.64-71.71h27.3l-33.26 131.37z" fill="#FFF"/>
</g>
</g>
</svg>
